<?xml version="1.0" encoding="UTF-8"?> <svg xmlns="http://www.w3.org/2000/svg" width="260" height="81" viewBox="0 0 260 81" fill="none"> <path d="M86.8426 20.547C85.7592 18.7785 84.1613 17.415 82.0624 16.4565C79.9499 15.498 77.3499 15.0255 74.2488 15.0255H61.5332V51.5295H70.3759V38.853H74.2488C77.3499 38.853 79.9634 38.3805 82.0624 37.422C84.1749 36.4635 85.7728 35.1 86.8426 33.3045C87.9259 31.509 88.4676 29.403 88.4676 26.973C88.4676 24.462 87.9259 22.3155 86.8426 20.547ZM78.4197 30.402C77.404 31.1985 76.0092 31.6035 74.2353 31.6035H70.3624V22.275H74.2353C76.0092 22.275 77.404 22.68 78.4197 23.4765C79.4353 24.273 79.9363 25.4475 79.9363 26.973C79.9363 28.458 79.4353 29.6055 78.4197 30.402Z" fill="black"></path> <path d="M142.932 30.375C141.971 29.2275 140.644 28.35 138.951 27.7425C137.258 27.135 135.335 26.8245 133.169 26.8245C131.002 26.8245 128.971 27.1215 127.075 27.7155C125.179 28.3095 123.54 28.9305 122.186 29.592L124.854 34.911C125.233 34.668 125.815 34.3845 126.574 34.047C127.346 33.723 128.239 33.426 129.269 33.183C130.298 32.94 131.381 32.8185 132.532 32.8185C133.859 32.8185 134.888 33.129 135.647 33.7365C136.392 34.344 136.771 35.154 136.771 36.1665V38.34C136.757 38.34 136.757 38.3265 136.744 38.3265C135.918 37.9215 134.97 37.5975 133.873 37.341C132.776 37.0845 131.611 36.9495 130.393 36.9495C128.307 36.9495 126.465 37.26 124.895 37.8945C123.324 38.5155 122.119 39.4065 121.265 40.554C120.412 41.7015 119.979 43.0785 119.979 44.6715C119.979 46.2375 120.358 47.5605 121.103 48.654C121.848 49.7475 122.89 50.5845 124.218 51.1515C125.545 51.7185 127.048 52.0155 128.713 52.0155C130.379 52.0155 131.896 51.732 133.236 51.1515C134.577 50.5845 135.647 49.7475 136.432 48.654C136.554 48.4785 136.662 48.303 136.771 48.114V51.489H144.354V34.6005C144.381 32.94 143.894 31.5225 142.932 30.375ZM136.053 44.82C135.565 45.549 134.915 46.0755 134.089 46.386C133.263 46.6965 132.37 46.8585 131.395 46.8585C130.772 46.8585 130.189 46.764 129.675 46.575C129.147 46.386 128.727 46.1025 128.415 45.738C128.104 45.3735 127.942 44.9145 127.942 44.361C127.942 43.6995 128.104 43.146 128.443 42.687C128.768 42.2415 129.255 41.877 129.905 41.6205C130.555 41.364 131.327 41.229 132.234 41.229C133.588 41.229 134.753 41.391 135.714 41.7285C136.067 41.85 136.432 42.012 136.771 42.174C136.744 43.281 136.5 44.1585 136.053 44.82Z" fill="black"></path> <path d="M152.398 41.5665C152.398 42.876 152.032 43.7265 151.314 44.118C150.583 44.5095 149.716 44.6985 148.701 44.6985V51.516C151.504 51.516 153.711 51.219 155.323 50.6385C156.92 50.0445 158.072 49.1535 158.749 47.9655C159.426 46.764 159.764 45.2655 159.764 43.443V35.208H166.291V51.5295H173.644V28.269H152.425V41.5665H152.398Z" fill="black"></path> <path d="M183.706 51.516L195.961 39.744V51.516H203.314V28.269H199.157L186.942 40.0005V28.269H179.535V51.516H183.706Z" fill="black"></path> <path d="M256.682 28.269H233.391V34.587H241.353V51.516H248.706V34.587H256.682V28.269Z" fill="black"></path> <path d="M227.595 42.552L227.189 42.9975C225.55 44.793 223.708 45.6705 221.555 45.6705C219.835 45.6705 218.4 45.117 217.154 43.9695C215.922 42.8355 215.326 41.3775 215.326 39.501C215.326 37.665 215.908 36.2205 217.114 35.0865C218.319 33.939 219.7 33.3855 221.311 33.3855C223.478 33.3855 225.306 34.101 226.755 35.5185L227.189 35.937L230.466 30.429L230.208 30.1725C228.028 27.999 224.778 26.892 220.54 26.892C216.951 26.892 213.931 28.1205 211.589 30.537C209.246 32.9535 208.054 35.964 208.054 39.501C208.054 43.254 209.259 46.3185 211.656 48.627C214.04 50.9355 217.222 52.0965 221.122 52.0965C223.099 52.0965 224.954 51.732 226.647 51.03C228.353 50.3145 229.734 49.2615 230.736 47.898L230.926 47.6415L227.595 42.552Z" fill="black"></path> <path d="M109.092 43.4295C108.794 43.821 108.469 44.1855 108.103 44.496C107.548 44.9685 106.898 45.3195 106.139 45.5625C105.395 45.8055 104.528 45.927 103.553 45.927C102.51 45.927 101.562 45.6975 100.723 45.252C99.8832 44.8065 99.2197 44.064 98.7051 43.065C98.3801 42.4305 98.1634 41.661 98.0551 40.77H116.418C116.485 40.3515 116.526 39.96 116.526 39.5955C116.526 39.231 116.526 38.9475 116.526 38.7315C116.526 36.1935 116.025 34.02 115.036 32.211C114.048 30.402 112.572 29.0115 110.649 28.0395C108.712 27.0675 106.356 26.5815 103.567 26.5815C100.953 26.5815 98.7051 27 96.8499 27.837C94.9812 28.674 93.5051 29.835 92.4082 31.3335C91.3114 32.832 90.5801 34.56 90.2416 36.5445C90.1739 36.963 90.1197 37.3815 90.0791 37.8C90.0384 38.2185 90.0249 38.6505 90.0249 39.1095C90.0249 41.5125 90.553 43.659 91.6228 45.549C92.6926 47.439 94.2364 48.924 96.2812 50.004C98.3259 51.084 100.791 51.624 103.688 51.624C106.018 51.624 108.008 51.3405 109.62 50.76C111.245 50.193 112.612 49.3695 113.723 48.303C114.305 47.7495 114.847 47.1285 115.348 46.4535L109.092 43.4295ZM98.7322 34.587C99.1791 33.696 99.802 33.021 100.587 32.5485C101.373 32.076 102.307 31.8465 103.391 31.8465C104.338 31.8465 105.124 32.0355 105.774 32.4C106.424 32.7645 106.925 33.2775 107.291 33.939C107.656 34.6005 107.913 35.4105 108.049 36.396H98.177C98.2718 35.721 98.4614 35.1135 98.7322 34.587Z" fill="black"></path> <path d="M41.1665 2.02502H16.7374C15.6676 2.02502 14.7332 2.71352 14.3947 3.71252L3.37173 37.395C3.15507 38.07 3.65611 38.772 4.37382 38.772H17.0624C17.7801 38.772 18.2947 39.474 18.0644 40.149L5.56548 78.2865C5.30819 79.056 6.33736 79.569 6.81132 78.9075L39.1082 33.2505C39.5957 32.5485 39.0947 31.59 38.2415 31.59H24.3072C23.454 31.59 22.953 30.6315 23.4405 29.9295L42.0332 3.68552C42.5207 2.98352 42.0197 2.02502 41.1665 2.02502Z" fill="url(#paint0_linear_528_6088)"></path> <defs> <linearGradient id="paint0_linear_528_6088" x1="22.7726" y1="2.02502" x2="22.7726" y2="79.2119" gradientUnits="userSpaceOnUse"> <stop stop-color="#9B35C5"></stop> <stop offset="0.900055" stop-color="#00ACFF"></stop> </linearGradient> </defs> </svg> 